<svg width="25" height="25" viewBox="0 0 25 25" fill="none" xmlns="http://www.w3.org/2000/svg">
<circle cx="12.5" cy="12.5" r="12.5" fill="#1E3A4B"/>
<path fill-rule="evenodd" clip-rule="evenodd" d="M13 5.46875C13 5.19261 12.7761 4.96875 12.5 4.96875C12.2239 4.96875 12 5.19261 12 5.46875V12L5.46875 12C5.19261 12 4.96875 12.2239 4.96875 12.5C4.96875 12.7761 5.19261 13 5.46875 13H12V19.5312C12 19.8074 12.2239 20.0312 12.5 20.0312C12.7761 20.0312 13 19.8074 13 19.5312V13H19.5312C19.8074 13 20.0312 12.7761 20.0312 12.5C20.0312 12.2239 19.8074 12 19.5312 12L13 12V5.46875Z" fill="white"/>
<path d="M12 12L12 12.5L12.5 12.5V12H12ZM5.46875 12L5.46875 11.5H5.46875V12ZM12 13H12.5V12.5H12V13ZM13 13V12.5H12.5V13H13ZM19.5312 12L19.5312 12.5H19.5312V12ZM13 12H12.5V12.5L13 12.5L13 12ZM12.5 5.46875V5.46875H13.5C13.5 4.91647 13.0523 4.46875 12.5 4.46875V5.46875ZM12.5 5.46875V4.46875C11.9477 4.46875 11.5 4.91647 11.5 5.46875H12.5ZM12.5 12V5.46875H11.5V12H12.5ZM5.46875 12.5L12 12.5L12 11.5L5.46875 11.5L5.46875 12.5ZM5.46875 12.5H5.46875V11.5C4.91647 11.5 4.46875 11.9477 4.46875 12.5H5.46875ZM5.46875 12.5L5.46875 12.5H4.46875C4.46875 13.0523 4.91647 13.5 5.46875 13.5V12.5ZM12 12.5H5.46875V13.5H12V12.5ZM12.5 19.5312V13H11.5V19.5312H12.5ZM12.5 19.5312H11.5C11.5 20.0835 11.9477 20.5312 12.5 20.5312V19.5312ZM12.5 19.5312H12.5V20.5312C13.0523 20.5312 13.5 20.0835 13.5 19.5312H12.5ZM12.5 13V19.5312H13.5V13H12.5ZM19.5312 12.5H13V13.5H19.5312V12.5ZM19.5312 12.5V13.5C20.0835 13.5 20.5312 13.0523 20.5312 12.5H19.5312ZM19.5312 12.5H20.5312C20.5312 11.9477 20.0835 11.5 19.5312 11.5V12.5ZM13 12.5L19.5312 12.5L19.5313 11.5L13 11.5L13 12.5ZM12.5 5.46875V12H13.5V5.46875H12.5Z" fill="white"/>
</svg>
