<svg width="42" height="52" viewBox="0 0 42 52" fill="none" xmlns="http://www.w3.org/2000/svg">
<path fill-rule="evenodd" clip-rule="evenodd" d="M18.6361 21.8188H18.5442C17.4401 22.6162 16.3863 23.4233 15.3863 24.1893C12.229 26.6075 9.60667 28.6162 7.61967 28.6162H6.97704V0H0V29.3295H17.0754L18.5443 22.2603V51.1483H25.5213V38.8123C26.5312 38.9381 28.2295 39.064 29.6066 39.064C37.3181 39.064 42 35.5394 42 30.0428C42 24.8818 37.8689 21.8188 29.6066 21.8188H18.636L18.6361 21.8188ZM34.7017 30.5463C34.7017 35.4555 32.5902 38.4346 28.0918 38.4346C27.0361 38.4346 26.2099 38.3087 25.5213 38.099V22.4901H28.1377C32.8197 22.4901 34.7017 25.8888 34.7017 30.5463Z" fill="#1E3A4B"/>
</svg>
